<svg width="24" height="24" viewBox="0 0 24 24" fill="none" xmlns="http://www.w3.org/2000/svg">
<rect x="0.5" y="0.5" width="23" height="23" stroke="#0F172A"/>
<path d="M20.0994 9.5H18.7784C18.7003 9.12003 18.5636 8.78622 18.3683 8.49858C18.1765 8.21094 17.9421 7.96946 17.6651 7.77415C17.3917 7.57528 17.0881 7.42614 16.7543 7.3267C16.4205 7.22727 16.0724 7.17756 15.7102 7.17756C15.0497 7.17756 14.4513 7.34446 13.9151 7.67827C13.3825 8.01207 12.9581 8.50391 12.642 9.15376C12.3295 9.80362 12.1733 10.6009 12.1733 11.5455C12.1733 12.4901 12.3295 13.2873 12.642 13.9371C12.9581 14.587 13.3825 15.0788 13.9151 15.4126C14.4513 15.7464 15.0497 15.9134 15.7102 15.9134C16.0724 15.9134 16.4205 15.8636 16.7543 15.7642C17.0881 15.6648 17.3917 15.5174 17.6651 15.3221C17.9421 15.1232 18.1765 14.88 18.3683 14.5923C18.5636 14.3011 18.7003 13.9673 18.7784 13.5909H20.0994C20 14.1484 19.8189 14.6474 19.5561 15.0877C19.2933 15.5281 18.9666 15.9027 18.576 16.2116C18.1854 16.517 17.7468 16.7496 17.2603 16.9094C16.7773 17.0692 16.2607 17.1491 15.7102 17.1491C14.7798 17.1491 13.9524 16.9219 13.228 16.4673C12.5036 16.0128 11.9336 15.3665 11.5181 14.5284C11.1026 13.6903 10.8949 12.696 10.8949 11.5455C10.8949 10.3949 11.1026 9.40057 11.5181 8.5625C11.9336 7.72443 12.5036 7.07812 13.228 6.62358C13.9524 6.16903 14.7798 5.94176 15.7102 5.94176C16.2607 5.94176 16.7773 6.02166 17.2603 6.18146C17.7468 6.34126 18.1854 6.57564 18.576 6.88459C18.9666 7.18999 19.2933 7.56285 19.5561 8.0032C19.8189 8.43999 20 8.93892 20.0994 9.5Z" fill="#0F172A"/>
<path d="M4.76847 17H3.38352L7.3892 6.09091H8.75284L12.7585 17H11.3736L8.11364 7.81676H8.02841L4.76847 17ZM5.27983 12.7386H10.8622V13.9105H5.27983V12.7386Z" fill="#0F172A"/>
</svg>
